<svg width="2082" height="1506" viewBox="0 0 2082 1506" fill="none" xmlns="http://www.w3.org/2000/svg">
<g filter="url(#filter0_f_1303_7271)">
<path d="M1066.6 591.391C1113.48 648.716 1131.83 720.004 1117.78 790.254C1103.73 860.504 1058.37 924.24 991.257 968.05C924.143 1011.86 840.501 1032.33 757.932 1025.15C675.363 1017.97 600.303 983.702 548.547 929.557C496.791 875.411 472.373 805.609 480.432 734.838C488.49 664.066 528.397 597.844 591.755 550.104C655.113 502.364 736.982 476.829 820.136 478.872C903.29 480.914 981.246 510.376 1037.6 561.056L800.655 752.657L1066.6 591.391Z" fill="#F1960D" fill-opacity="0.2"/>
</g>
<g filter="url(#filter1_f_1303_7271)">
<path d="M1066.51 631.866C1087.65 657.725 1096.69 689.422 1091.71 720.288C1086.73 751.154 1068.12 778.782 1039.8 797.36C1011.47 815.937 975.65 824.015 939.859 819.894C904.069 815.773 871.103 799.774 847.898 775.264C824.694 750.754 813.059 719.643 815.443 688.478C817.827 657.313 834.044 628.523 860.68 608.167C887.317 587.811 922.297 577.474 958.261 579.333C994.224 581.192 1028.37 595.102 1053.5 618.134L954.092 700.033L1066.51 631.866Z" fill="#679F38" fill-opacity="0.2"/>
</g>
<g filter="url(#filter2_f_1303_7271)">
<path d="M1654.73 528.163C1704.51 583.605 1731.93 657.566 1731.23 734.483C1730.52 811.4 1701.75 885.276 1650.96 940.567C1600.17 995.858 1531.33 1028.25 1458.92 1030.94C1386.51 1033.62 1316.17 1006.38 1262.71 954.949C1209.25 903.52 1176.83 831.91 1172.28 755.188C1167.73 678.465 1191.39 602.612 1238.3 543.588C1285.21 484.565 1351.7 446.973 1423.78 438.722C1495.86 430.471 1567.92 452.205 1624.78 499.35L1451.48 734.062L1654.73 528.163Z" fill="#A481DE" fill-opacity="0.2"/>
</g>
<defs>
<filter id="filter0_f_1303_7271" x="0.466492" y="0.302673" width="1600.38" height="1504.71" filterUnits="userSpaceOnUse" color-interpolation-filters="sRGB">
<feFlood flood-opacity="0" result="BackgroundImageFix"/>
<feBlend mode="normal" in="SourceGraphic" in2="BackgroundImageFix" result="shape"/>
<feGaussianBlur stdDeviation="239.228" result="effect1_foregroundBlur_1303_7271"/>
</filter>
<filter id="filter1_f_1303_7271" x="615.138" y="379.12" width="677.908" height="641.827" filterUnits="userSpaceOnUse" color-interpolation-filters="sRGB">
<feFlood flood-opacity="0" result="BackgroundImageFix"/>
<feBlend mode="normal" in="SourceGraphic" in2="BackgroundImageFix" result="shape"/>
<feGaussianBlur stdDeviation="100" result="effect1_foregroundBlur_1303_7271"/>
</filter>
<filter id="filter2_f_1303_7271" x="821.725" y="87.0068" width="1259.51" height="1294.11" filterUnits="userSpaceOnUse" color-interpolation-filters="sRGB">
<feFlood flood-opacity="0" result="BackgroundImageFix"/>
<feBlend mode="normal" in="SourceGraphic" in2="BackgroundImageFix" result="shape"/>
<feGaussianBlur stdDeviation="175" result="effect1_foregroundBlur_1303_7271"/>
</filter>
</defs>
</svg>
